<?xml version="1.0" encoding="UTF-8"?>
<svg version="1.1" xmlns="http://www.w3.org/2000/svg" width="150" height="150">
<path d="M0 0 C49.5 0 99 0 150 0 C150 49.5 150 99 150 150 C100.5 150 51 150 0 150 C0 100.5 0 51 0 0 Z " fill="#231F20" transform="translate(0,0)"/>
<path d="M0 0 C1.9375 2.375 1.9375 2.375 3 5 C3.495 5.99 3.495 5.99 4 7 C4.13677734 10.33736713 4.04283944 13.6585233 4 17 C8.62 16.67 13.24 16.34 18 16 C18 14.35 18 12.7 18 11 C19.32 10.34 20.64 9.68 22 9 C22 10.65 22 12.3 22 14 C22.71430176 13.75765625 23.42860352 13.5153125 24.16455078 13.265625 C54.42492171 3.12520748 54.42492171 3.12520748 64.05859375 6.78125 C67.03846065 8.55344902 69.14181319 11.10948718 71 14 C70.67 14.66 70.34 15.32 70 16 C69.01 14.515 69.01 14.515 68 13 C67.34 13 66.68 13 66 13 C65.67 14.32 65.34 15.64 65 17 C64.34 17 63.68 17 63 17 C63.495 18.423125 63.495 18.423125 64 19.875 C65 23 65 23 65 25 C65.66 25 66.32 25 67 25 C66.505 26.485 66.505 26.485 66 28 C66 28.33 66 28.66 66 29 C66.66 29.33 67.32 29.66 68 30 C67.34 30.66 66.68 31.32 66 32 C64.68 32 63.36 32 62 32 C61.505 30.02 61.505 30.02 61 28 C60.505 29.485 60.505 29.485 60 31 C54.33479087 32.22491008 48.77280615 32 43 32 C42.82984375 32.60328125 42.6596875 33.2065625 42.484375 33.828125 C39.85269122 42.50708215 39.85269122 42.50708215 36 45 C33.25 44.75 33.25 44.75 31 44 C30.79913557 40.28400809 30.8480563 39.22791555 33 36 C32.34 36 31.68 36 31 36 C30.67 35.01 30.34 34.02 30 33 C29.278125 32.855625 28.55625 32.71125 27.8125 32.5625 C25.20833333 32.04166667 22.60416667 31.52083333 20 31 C19.67 31.66 19.34 32.32 19 33 C11.57142857 32 11.57142857 32 8 31 C8 29.68 8 28.36 8 27 C6.35 27 4.7 27 3 27 C3.02320313 27.68707031 3.04640625 28.37414062 3.0703125 29.08203125 C3.08835938 29.98308594 3.10640625 30.88414063 3.125 31.8125 C3.14820313 32.70582031 3.17140625 33.59914062 3.1953125 34.51953125 C3 37 3 37 1 40 C1 36.04 1 32.08 1 28 C-1.64 28 -4.28 28 -7 28 C-7 27.34 -7 26.68 -7 26 C-4.03 26 -1.06 26 2 26 C2 23.36 2 20.72 2 18 C0.88625 17.896875 -0.2275 17.79375 -1.375 17.6875 C-3.169375 17.3471875 -3.169375 17.3471875 -5 17 C-5.66 16.01 -6.32 15.02 -7 14 C-4.03 14.99 -1.06 15.98 2 17 C1.34 12.38 0.68 7.76 0 3 C-9.9599583 1.34000695 -16.34410752 4.84002311 -24.65234375 10.18359375 C-26.95097352 11.9620677 -28.46937735 13.53989032 -30 16 C-30 16.66 -30 17.32 -30 18 C-27.69 18.66 -25.38 19.32 -23 20 C-23 20.33 -23 20.66 -23 21 C-28.625 21.25 -28.625 21.25 -32 19 C-32.390625 16.58984375 -32.390625 16.58984375 -32 14 C-25.16151959 4.68759873 -11.33117317 -1.07915935 0 0 Z " fill="#2B2829" transform="translate(52,53)"/>
<path d="M0 0 C1.9375 2.375 1.9375 2.375 3 5 C3.495 5.99 3.495 5.99 4 7 C4.13677734 10.33736713 4.04283944 13.6585233 4 17 C8.62 16.67 13.24 16.34 18 16 C18 14.35 18 12.7 18 11 C19.32 10.34 20.64 9.68 22 9 C22 10.65 22 12.3 22 14 C22.71430176 13.75765625 23.42860352 13.5153125 24.16455078 13.265625 C54.42492171 3.12520748 54.42492171 3.12520748 64.05859375 6.78125 C67.03846065 8.55344902 69.14181319 11.10948718 71 14 C70.67 14.66 70.34 15.32 70 16 C68.9171875 14.576875 68.9171875 14.576875 67.8125 13.125 C65.42226714 10.29410969 63.69948457 8.86034525 60 8 C51.56428875 7.66971289 44.05175916 9.71691731 36 12 C35.31873047 12.18191895 34.63746094 12.36383789 33.93554688 12.55126953 C26.30245095 14.262929 26.30245095 14.262929 20.6875 19.09765625 C19.98653413 21.52787448 19.98653413 21.52787448 20 25 C20.99 25 21.98 25 23 25 C22.505 27.475 22.505 27.475 22 30 C23.32 30 24.64 30 26 30 C26 29.01 26 28.02 26 27 C26.66 27 27.32 27 28 27 C28 27.99 28 28.98 28 30 C30.33075929 29.04134491 30.33075929 29.04134491 32 26 C32 27.65 32 29.3 32 31 C32.66 31.33 33.32 31.66 34 32 C31.85423363 32.02685938 29.70837355 32.04633088 27.5625 32.0625 C26.36753906 32.07410156 25.17257813 32.08570313 23.94140625 32.09765625 C21 32 21 32 20 31 C19.67 31.66 19.34 32.32 19 33 C11.57142857 32 11.57142857 32 8 31 C8 29.68 8 28.36 8 27 C6.35 27 4.7 27 3 27 C3.02320313 27.68707031 3.04640625 28.37414062 3.0703125 29.08203125 C3.08835938 29.98308594 3.10640625 30.88414063 3.125 31.8125 C3.14820313 32.70582031 3.17140625 33.59914062 3.1953125 34.51953125 C3 37 3 37 1 40 C1 36.04 1 32.08 1 28 C-1.64 28 -4.28 28 -7 28 C-7 27.34 -7 26.68 -7 26 C-4.03 26 -1.06 26 2 26 C2 23.36 2 20.72 2 18 C0.88625 17.896875 -0.2275 17.79375 -1.375 17.6875 C-3.169375 17.3471875 -3.169375 17.3471875 -5 17 C-5.66 16.01 -6.32 15.02 -7 14 C-4.03 14.99 -1.06 15.98 2 17 C1.34 12.38 0.68 7.76 0 3 C-9.9599583 1.34000695 -16.34410752 4.84002311 -24.65234375 10.18359375 C-26.95097352 11.9620677 -28.46937735 13.53989032 -30 16 C-30 16.66 -30 17.32 -30 18 C-27.69 18.66 -25.38 19.32 -23 20 C-23 20.33 -23 20.66 -23 21 C-28.625 21.25 -28.625 21.25 -32 19 C-32.390625 16.58984375 -32.390625 16.58984375 -32 14 C-25.16151959 4.68759873 -11.33117317 -1.07915935 0 0 Z " fill="#B8B5B6" transform="translate(52,53)"/>
<path d="M0 0 C1.9375 2.375 1.9375 2.375 3 5 C3.495 5.99 3.495 5.99 4 7 C4.08342159 8.44848582 4.10732861 9.90070869 4.09765625 11.3515625 C4.09443359 12.20234375 4.09121094 13.053125 4.08789062 13.9296875 C4.07532227 15.26386719 4.07532227 15.26386719 4.0625 16.625 C4.05798828 17.5221875 4.05347656 18.419375 4.04882812 19.34375 C4.03702591 21.56256648 4.02056155 23.78125018 4 26 C5.98 26 7.96 26 10 26 C10 27.32 10 28.64 10 30 C10.66 30 11.32 30 12 30 C12 28.68 12 27.36 12 26 C12.66 26 13.32 26 14 26 C14 27.65 14 29.3 14 31 C14.66 31.33 15.32 31.66 16 32 C13.69 32 11.38 32 9 32 C8.67 30.35 8.34 28.7 8 27 C6.35 27 4.7 27 3 27 C3.02320313 27.68707031 3.04640625 28.37414062 3.0703125 29.08203125 C3.08835938 29.98308594 3.10640625 30.88414063 3.125 31.8125 C3.14820313 32.70582031 3.17140625 33.59914062 3.1953125 34.51953125 C3 37 3 37 1 40 C1 36.04 1 32.08 1 28 C-1.64 28 -4.28 28 -7 28 C-7 27.34 -7 26.68 -7 26 C-4.03 26 -1.06 26 2 26 C2 23.36 2 20.72 2 18 C0.88625 17.896875 -0.2275 17.79375 -1.375 17.6875 C-3.169375 17.3471875 -3.169375 17.3471875 -5 17 C-5.66 16.01 -6.32 15.02 -7 14 C-4.03 14.99 -1.06 15.98 2 17 C1.34 12.38 0.68 7.76 0 3 C-9.9599583 1.34000695 -16.34410752 4.84002311 -24.65234375 10.18359375 C-26.95097352 11.9620677 -28.46937735 13.53989032 -30 16 C-30 16.66 -30 17.32 -30 18 C-27.69 18.66 -25.38 19.32 -23 20 C-23 20.33 -23 20.66 -23 21 C-28.625 21.25 -28.625 21.25 -32 19 C-32.390625 16.58984375 -32.390625 16.58984375 -32 14 C-25.16151959 4.68759873 -11.33117317 -1.07915935 0 0 Z " fill="#BFBBBC" transform="translate(52,53)"/>
<path d="M0 0 C2.6875 0.3125 2.6875 0.3125 5 1 C6.61792734 5.50932008 4.98964397 8.43004634 3.171875 12.64453125 C1.78782762 15.42646648 0.64763965 17.3151384 -2 19 C-4.75 18.75 -4.75 18.75 -7 18 C-7.375 15.875 -7.375 15.875 -7 13 C-5.20659643 10.76086748 -3.16547337 8.87545461 -1 7 C-1.66 5.68 -2.32 4.36 -3 3 C-1.8125 1.4375 -1.8125 1.4375 0 0 Z " fill="#D0CECF" transform="translate(90,79)"/>
<path d="M0 0 C0 3.96 0 7.92 0 12 C-0.99 12.33 -1.98 12.66 -3 13 C-3 11.35 -3 9.7 -3 8 C-3.66 8 -4.32 8 -5 8 C-5 9.32 -5 10.64 -5 12 C-5.66 12 -6.32 12 -7 12 C-7 10.68 -7 9.36 -7 8 C-8.98 8 -10.96 8 -13 8 C-13 5.69 -13 3.38 -13 1 C-8.54459632 0.39587747 -4.52021205 0 0 0 Z " fill="#242122" transform="translate(69,71)"/>
<path d="M0 0 C0.33 0 0.66 0 1 0 C1 2.31 1 4.62 1 7 C2.98 7 4.96 7 7 7 C7 8.32 7 9.64 7 11 C7.66 11 8.32 11 9 11 C9 9.68 9 8.36 9 7 C9.66 7 10.32 7 11 7 C11 8.65 11 10.3 11 12 C11.66 12.33 12.32 12.66 13 13 C10.69 13 8.38 13 6 13 C5.67 11.35 5.34 9.7 5 8 C3.35 8 1.7 8 0 8 C0.02320313 8.68707031 0.04640625 9.37414062 0.0703125 10.08203125 C0.09738281 11.43361328 0.09738281 11.43361328 0.125 12.8125 C0.14820313 13.70582031 0.17140625 14.59914063 0.1953125 15.51953125 C0 18 0 18 -2 21 C-2 17.04 -2 13.08 -2 9 C-4.64 9 -7.28 9 -10 9 C-10 8.34 -10 7.68 -10 7 C-6.7 7 -3.4 7 0 7 C0 4.69 0 2.38 0 0 Z " fill="#B8B4B5" transform="translate(55,72)"/>
<path d="M0 0 C3 1 3 1 4.17578125 3.1953125 C6.21141759 10.12226459 5.27869984 17.96715086 4 25 C3.67 25 3.34 25 3 25 C3 22.36 3 19.72 3 17 C1.88625 16.896875 0.7725 16.79375 -0.375 16.6875 C-2.169375 16.3471875 -2.169375 16.3471875 -4 16 C-4.66 15.01 -5.32 14.02 -6 13 C-3.03 13.99 -0.06 14.98 3 16 C2.69177379 13.7077546 2.37829126 11.41621545 2.0625 9.125 C1.88847656 7.84882812 1.71445312 6.57265625 1.53515625 5.2578125 C1.18566773 2.12440546 1.18566773 2.12440546 0 0 Z " fill="#D3D0D1" transform="translate(51,54)"/>
<path d="M0 0 C0.33 1.32 0.66 2.64 1 4 C1.99 4 2.98 4 4 4 C3.34 4.66 2.68 5.32 2 6 C0.68 6 -0.64 6 -2 6 C-2.33 4.68 -2.66 3.36 -3 2 C-3.33 2.99 -3.66 3.98 -4 5 C-6.3125 5.625 -6.3125 5.625 -9 6 C-9.99 5.34 -10.98 4.68 -12 4 C-10 1 -10 1 -8.25 0.3125 C-5.48083033 -0.0721069 -2.79197653 -0.06345401 0 0 Z " fill="#C3BFC0" transform="translate(116,79)"/>
<path d="M0 0 C1.32 0.33 2.64 0.66 4 1 C3.67 2.65 3.34 4.3 3 6 C4.32 6 5.64 6 7 6 C7 5.01 7 4.02 7 3 C7.66 3 8.32 3 9 3 C9 3.99 9 4.98 9 6 C11.33075929 5.04134491 11.33075929 5.04134491 13 2 C13 3.65 13 5.3 13 7 C13.66 7.33 14.32 7.66 15 8 C12.87561661 8.08078641 10.7503677 8.13909141 8.625 8.1875 C6.84996094 8.23970703 6.84996094 8.23970703 5.0390625 8.29296875 C3.53472656 8.14794922 3.53472656 8.14794922 2 8 C-0.1519437 4.77208445 -0.20086443 3.71599191 0 0 Z " fill="#C2C0C1" transform="translate(71,77)"/>
<path d="M0 0 C-0.41421969 4.83256305 -2.46413986 6.82679218 -6 10 C-6.66 9.67 -7.32 9.34 -8 9 C-7.53918323 4.85264908 -4.48412936 0 0 0 Z " fill="#2D2B2C" transform="translate(92,87)"/>
<path d="M0 0 C1.65 0 3.3 0 5 0 C5 2.64 5 5.28 5 8 C2.69 8 0.38 8 -2 8 C-1.34 7.67 -0.68 7.34 0 7 C-0.33 5.68 -0.66 4.36 -1 3 C-0.01 3.33 0.98 3.66 2 4 C1.34 2.68 0.68 1.36 0 0 Z " fill="#2B2728" transform="translate(49,71)"/>
<path d="M0 0 C2.97 0 5.94 0 9 0 C6 2 6 2 4 2 C4 3.65 4 5.3 4 7 C2.68 7 1.36 7 0 7 C0 4.69 0 2.38 0 0 Z " fill="#1E1A1B" transform="translate(56,72)"/>
<path d="M0 0 C0.66 0 1.32 0 2 0 C2 1.65 2 3.3 2 5 C3.98 4.67 5.96 4.34 8 4 C7.67 4.66 7.34 5.32 7 6 C3.65506316 6.99444068 1.31044803 7.10348268 -2 6 C-1.125 1.125 -1.125 1.125 0 0 Z " fill="#A9A7A8" transform="translate(72,62)"/>
<path d="M0 0 C2.475 0.99 2.475 0.99 5 2 C3.35 3.65 1.7 5.3 0 7 C-0.99 6.67 -1.98 6.34 -3 6 C-3.33 4.35 -3.66 2.7 -4 1 C-2.68 1.33 -1.36 1.66 0 2 C0 1.34 0 0.68 0 0 Z " fill="#353334" transform="translate(86,83)"/>
<path d="M0 0 C0.66 0 1.32 0 2 0 C2 1.32 2 2.64 2 4 C2.66 4 3.32 4 4 4 C4 2.68 4 1.36 4 0 C4.66 0 5.32 0 6 0 C6 1.65 6 3.3 6 5 C6.66 5.33 7.32 5.66 8 6 C5.66705225 6.04241723 3.33297433 6.04092937 1 6 C0 5 0 5 -0.0625 2.4375 C-0.041875 1.633125 -0.02125 0.82875 0 0 Z " fill="#C2BFC0" transform="translate(60,79)"/>
<path d="M0 0 C0.99 0 1.98 0 3 0 C3 1.98 3 3.96 3 6 C1.35 6 -0.3 6 -2 6 C-2 2 -2 2 0 0 Z " fill="#999798" transform="translate(90,79)"/>
<path d="M0 0 C0.33 0 0.66 0 1 0 C1 1.65 1 3.3 1 5 C1.99 5.33 2.98 5.66 4 6 C2.02 6.99 2.02 6.99 0 8 C-0.99 7.34 -1.98 6.68 -3 6 C-3 5.34 -3 4.68 -3 4 C-2.34 4 -1.68 4 -1 4 C-0.67 2.68 -0.34 1.36 0 0 Z " fill="#322E2F" transform="translate(113,80)"/>
<path d="M0 0 C1.32 1.32 2.64 2.64 4 4 C3.67 4.66 3.34 5.32 3 6 C0.9375 6.625 0.9375 6.625 -1 7 C-1 6.01 -1 5.02 -1 4 C-1.66 3.67 -2.32 3.34 -3 3 C-2.01 2.01 -1.02 1.02 0 0 Z " fill="#3E3A3B" transform="translate(43,65)"/>
<path d="M0 0 C0 0.66 0 1.32 0 2 C-1.32 2.33 -2.64 2.66 -4 3 C-4 3.66 -4 4.32 -4 5 C-5.32 5.33 -6.64 5.66 -8 6 C-7.8125 4.125 -7.8125 4.125 -7 2 C-4.55683729 0.74709605 -2.75474605 0 0 0 Z " fill="#1B1819" transform="translate(81,71)"/>
<path d="M0 0 C0.93065133 2.60582371 1.14917407 3.64198224 0.0625 6.25 C-0.4634375 7.11625 -0.4634375 7.11625 -1 8 C-1.99 7.67 -2.98 7.34 -4 7 C-2.92598892 4.08482708 -2.22189824 2.22189824 0 0 Z " fill="#312D2E" transform="translate(25,64)"/>
<path d="M0 0 C1.32 0.33 2.64 0.66 4 1 C4.33 3.31 4.66 5.62 5 8 C4.01 8.495 4.01 8.495 3 9 C3 7.02 3 5.04 3 3 C2.01 3 1.02 3 0 3 C0 2.01 0 1.02 0 0 Z " fill="#1D1A1B" transform="translate(82,75)"/>
<path d="M0 0 C-3.08809695 1.76462683 -4.23312136 2 -8 2 C-8.33 2.66 -8.66 3.32 -9 4 C-9 3.01 -9 2.02 -9 1 C-5.57367167 -0.61798838 -3.61944899 -1.34053666 0 0 Z " fill="#1C191A" transform="translate(83,68)"/>
<path d="M0 0 C3.125 0.375 3.125 0.375 6 1 C6 1.99 6 2.98 6 4 C3.36 3.34 0.72 2.68 -2 2 C-1.34 1.34 -0.68 0.68 0 0 Z " fill="#353232" transform="translate(46,54)"/>
<path d="M0 0 C0.66 0 1.32 0 2 0 C2.6875 1.75 2.6875 1.75 3 4 C1.5625 6.25 1.5625 6.25 0 8 C0 7.34 0 6.68 0 6 C-0.66 5.67 -1.32 5.34 -2 5 C-1.34 5 -0.68 5 0 5 C-0.33 4.01 -0.66 3.02 -1 2 C-0.67 1.34 -0.34 0.68 0 0 Z " fill="#DFDDDE" transform="translate(93,80)"/>
<path d="M0 0 C1.32 0.33 2.64 0.66 4 1 C4 1.66 4 2.32 4 3 C4.66 3 5.32 3 6 3 C5 6 5 6 3 7 C3 6.01 3 5.02 3 4 C2.01 3.67 1.02 3.34 0 3 C0 2.01 0 1.02 0 0 Z " fill="#343031" transform="translate(113,75)"/>
</svg>
